<mxfile host="app.diagrams.net" modified="2022-08-22T11:35:05.452Z" agent="5.0 (Windows NT 10.0; Win64; x64) AppleWebKit/537.36 (KHTML, like Gecko) Chrome/104.0.0.0 Safari/537.36" etag="FTp2ASmp-HJ25bHnWrCJ" version="20.2.5" type="github">
  <diagram id="aS9pjdUC0Do7hMSleVWt" name="第 1 页">
    <mxGraphModel dx="1422" dy="762" grid="0" gridSize="10" guides="1" tooltips="1" connect="1" arrows="1" fold="1" page="1" pageScale="1" pageWidth="1654" pageHeight="1169" background="none" math="0" shadow="0">
      <root>
        <mxCell id="0" />
        <mxCell id="1" parent="0" />
        <mxCell id="eDFqkNTLr4-eCkODvhOK-2" value="NamespaceHandler" style="swimlane;fontStyle=0;childLayout=stackLayout;horizontal=1;startSize=26;fillColor=#CCFFCC;horizontalStack=0;resizeParent=1;resizeParentMax=0;resizeLast=0;collapsible=1;marginBottom=0;direction=east;strokeColor=default;swimlaneLine=1;glass=0;rounded=0;shadow=0;" parent="1" vertex="1" collapsed="1">
          <mxGeometry x="656" y="95" width="150" height="30" as="geometry">
            <mxRectangle x="758" y="56" width="180" height="52" as="alternateBounds" />
          </mxGeometry>
        </mxCell>
        <mxCell id="eDFqkNTLr4-eCkODvhOK-3" value="" style="text;strokeColor=none;fillColor=#CCFFCC;align=left;verticalAlign=top;spacingLeft=4;spacingRight=4;overflow=hidden;rotatable=0;points=[[0,0.5],[1,0.5]];portConstraint=eastwest;" parent="eDFqkNTLr4-eCkODvhOK-2" vertex="1">
          <mxGeometry y="26" width="180" height="26" as="geometry" />
        </mxCell>
        <mxCell id="eDFqkNTLr4-eCkODvhOK-7" value="SimplePropertyNamespaceHandler" style="swimlane;fontStyle=0;childLayout=stackLayout;horizontal=1;startSize=26;fillColor=#CCFFFF;horizontalStack=0;resizeParent=1;resizeParentMax=0;resizeLast=0;collapsible=1;marginBottom=0;direction=east;strokeColor=default;swimlaneLine=1;glass=0;rounded=0;shadow=0;" parent="1" vertex="1" collapsed="1">
          <mxGeometry x="364" y="204" width="223" height="30" as="geometry">
            <mxRectangle x="604" y="162" width="183" height="52" as="alternateBounds" />
          </mxGeometry>
        </mxCell>
        <mxCell id="eDFqkNTLr4-eCkODvhOK-8" value="" style="text;strokeColor=none;fillColor=#CCFFFF;align=left;verticalAlign=top;spacingLeft=4;spacingRight=4;overflow=hidden;rotatable=0;points=[[0,0.5],[1,0.5]];portConstraint=eastwest;" parent="eDFqkNTLr4-eCkODvhOK-7" vertex="1">
          <mxGeometry y="26" width="183" height="26" as="geometry" />
        </mxCell>
        <mxCell id="rqdoCPFN9nggNmxES_CL-17" value="" style="endArrow=classic;html=1;rounded=0;dashed=1;exitX=0.5;exitY=0;exitDx=0;exitDy=0;entryX=0.75;entryY=1;entryDx=0;entryDy=0;" parent="1" edge="1" target="eDFqkNTLr4-eCkODvhOK-2" source="uqSBEjEfvSzctJDrNyYK-3">
          <mxGeometry width="50" height="50" relative="1" as="geometry">
            <mxPoint x="501" y="114" as="sourcePoint" />
            <mxPoint x="589" y="57" as="targetPoint" />
          </mxGeometry>
        </mxCell>
        <mxCell id="rqdoCPFN9nggNmxES_CL-21" value="" style="endArrow=classic;html=1;rounded=0;exitX=0.5;exitY=0;exitDx=0;exitDy=0;entryX=1;entryY=1;entryDx=0;entryDy=0;" parent="1" edge="1" target="uqSBEjEfvSzctJDrNyYK-1" source="uqSBEjEfvSzctJDrNyYK-17">
          <mxGeometry width="50" height="50" relative="1" as="geometry">
            <mxPoint x="89" y="503" as="sourcePoint" />
            <mxPoint x="146" y="435" as="targetPoint" />
          </mxGeometry>
        </mxCell>
        <mxCell id="uqSBEjEfvSzctJDrNyYK-1" value="NamespaceHandlerSupport" style="swimlane;fontStyle=0;childLayout=stackLayout;horizontal=1;startSize=26;fillColor=#CCFFFF;horizontalStack=0;resizeParent=1;resizeParentMax=0;resizeLast=0;collapsible=1;marginBottom=0;direction=east;strokeColor=default;swimlaneLine=1;glass=0;rounded=0;shadow=0;" parent="1" vertex="1" collapsed="1">
          <mxGeometry x="635" y="204" width="192" height="30" as="geometry">
            <mxRectangle x="604" y="162" width="183" height="52" as="alternateBounds" />
          </mxGeometry>
        </mxCell>
        <mxCell id="uqSBEjEfvSzctJDrNyYK-2" value="" style="text;strokeColor=none;fillColor=#CCFFFF;align=left;verticalAlign=top;spacingLeft=4;spacingRight=4;overflow=hidden;rotatable=0;points=[[0,0.5],[1,0.5]];portConstraint=eastwest;" parent="uqSBEjEfvSzctJDrNyYK-1" vertex="1">
          <mxGeometry y="26" width="183" height="26" as="geometry" />
        </mxCell>
        <mxCell id="uqSBEjEfvSzctJDrNyYK-3" value="SimpleConstructorNamespaceHandler" style="swimlane;fontStyle=0;childLayout=stackLayout;horizontal=1;startSize=26;fillColor=#CCFFFF;horizontalStack=0;resizeParent=1;resizeParentMax=0;resizeLast=0;collapsible=1;marginBottom=0;direction=east;strokeColor=default;swimlaneLine=1;glass=0;rounded=0;shadow=0;" parent="1" vertex="1" collapsed="1">
          <mxGeometry x="880" y="204" width="243" height="30" as="geometry">
            <mxRectangle x="604" y="162" width="183" height="52" as="alternateBounds" />
          </mxGeometry>
        </mxCell>
        <mxCell id="uqSBEjEfvSzctJDrNyYK-4" value="" style="text;strokeColor=none;fillColor=#CCFFFF;align=left;verticalAlign=top;spacingLeft=4;spacingRight=4;overflow=hidden;rotatable=0;points=[[0,0.5],[1,0.5]];portConstraint=eastwest;" parent="uqSBEjEfvSzctJDrNyYK-3" vertex="1">
          <mxGeometry y="26" width="183" height="26" as="geometry" />
        </mxCell>
        <mxCell id="uqSBEjEfvSzctJDrNyYK-7" value="JeeNamespaceHandler" style="swimlane;fontStyle=0;childLayout=stackLayout;horizontal=1;startSize=26;fillColor=#CCFFFF;horizontalStack=0;resizeParent=1;resizeParentMax=0;resizeLast=0;collapsible=1;marginBottom=0;direction=east;strokeColor=default;swimlaneLine=1;glass=0;rounded=0;shadow=0;" parent="1" vertex="1" collapsed="1">
          <mxGeometry x="67" y="354" width="166" height="30" as="geometry">
            <mxRectangle x="604" y="162" width="183" height="52" as="alternateBounds" />
          </mxGeometry>
        </mxCell>
        <mxCell id="uqSBEjEfvSzctJDrNyYK-8" value="" style="text;strokeColor=none;fillColor=#CCFFFF;align=left;verticalAlign=top;spacingLeft=4;spacingRight=4;overflow=hidden;rotatable=0;points=[[0,0.5],[1,0.5]];portConstraint=eastwest;" parent="uqSBEjEfvSzctJDrNyYK-7" vertex="1">
          <mxGeometry y="26" width="183" height="26" as="geometry" />
        </mxCell>
        <mxCell id="uqSBEjEfvSzctJDrNyYK-9" value="AopNamespaceHandler" style="swimlane;fontStyle=0;childLayout=stackLayout;horizontal=1;startSize=26;fillColor=#CCFFFF;horizontalStack=0;resizeParent=1;resizeParentMax=0;resizeLast=0;collapsible=1;marginBottom=0;direction=east;strokeColor=default;swimlaneLine=1;glass=0;rounded=0;shadow=0;" parent="1" vertex="1" collapsed="1">
          <mxGeometry x="255" y="354" width="164" height="30" as="geometry">
            <mxRectangle x="604" y="162" width="183" height="52" as="alternateBounds" />
          </mxGeometry>
        </mxCell>
        <mxCell id="uqSBEjEfvSzctJDrNyYK-10" value="" style="text;strokeColor=none;fillColor=#CCFFFF;align=left;verticalAlign=top;spacingLeft=4;spacingRight=4;overflow=hidden;rotatable=0;points=[[0,0.5],[1,0.5]];portConstraint=eastwest;" parent="uqSBEjEfvSzctJDrNyYK-9" vertex="1">
          <mxGeometry y="26" width="183" height="26" as="geometry" />
        </mxCell>
        <mxCell id="uqSBEjEfvSzctJDrNyYK-11" value="ContextNamespaceHandler" style="swimlane;fontStyle=0;childLayout=stackLayout;horizontal=1;startSize=26;fillColor=#CCFFFF;horizontalStack=0;resizeParent=1;resizeParentMax=0;resizeLast=0;collapsible=1;marginBottom=0;direction=east;strokeColor=default;swimlaneLine=1;glass=0;rounded=0;shadow=0;" parent="1" vertex="1" collapsed="1">
          <mxGeometry x="441" y="354" width="179" height="30" as="geometry">
            <mxRectangle x="604" y="162" width="183" height="52" as="alternateBounds" />
          </mxGeometry>
        </mxCell>
        <mxCell id="uqSBEjEfvSzctJDrNyYK-12" value="" style="text;strokeColor=none;fillColor=#CCFFFF;align=left;verticalAlign=top;spacingLeft=4;spacingRight=4;overflow=hidden;rotatable=0;points=[[0,0.5],[1,0.5]];portConstraint=eastwest;" parent="uqSBEjEfvSzctJDrNyYK-11" vertex="1">
          <mxGeometry y="26" width="183" height="26" as="geometry" />
        </mxCell>
        <mxCell id="uqSBEjEfvSzctJDrNyYK-13" value="UtilNamespaceHandler" style="swimlane;fontStyle=0;childLayout=stackLayout;horizontal=1;startSize=26;fillColor=#CCFFFF;horizontalStack=0;resizeParent=1;resizeParentMax=0;resizeLast=0;collapsible=1;marginBottom=0;direction=east;strokeColor=default;swimlaneLine=1;glass=0;rounded=0;shadow=0;" parent="1" vertex="1" collapsed="1">
          <mxGeometry x="845" y="354" width="170" height="30" as="geometry">
            <mxRectangle x="604" y="162" width="183" height="52" as="alternateBounds" />
          </mxGeometry>
        </mxCell>
        <mxCell id="uqSBEjEfvSzctJDrNyYK-14" value="" style="text;strokeColor=none;fillColor=#CCFFFF;align=left;verticalAlign=top;spacingLeft=4;spacingRight=4;overflow=hidden;rotatable=0;points=[[0,0.5],[1,0.5]];portConstraint=eastwest;" parent="uqSBEjEfvSzctJDrNyYK-13" vertex="1">
          <mxGeometry y="26" width="183" height="26" as="geometry" />
        </mxCell>
        <mxCell id="uqSBEjEfvSzctJDrNyYK-15" value="TaskNamespaceHandler" style="swimlane;fontStyle=0;childLayout=stackLayout;horizontal=1;startSize=26;fillColor=#CCFFFF;horizontalStack=0;resizeParent=1;resizeParentMax=0;resizeLast=0;collapsible=1;marginBottom=0;direction=east;strokeColor=default;swimlaneLine=1;glass=0;rounded=0;shadow=0;" parent="1" vertex="1" collapsed="1">
          <mxGeometry x="1048" y="354" width="170" height="30" as="geometry">
            <mxRectangle x="604" y="162" width="183" height="52" as="alternateBounds" />
          </mxGeometry>
        </mxCell>
        <mxCell id="uqSBEjEfvSzctJDrNyYK-16" value="" style="text;strokeColor=none;fillColor=#CCFFFF;align=left;verticalAlign=top;spacingLeft=4;spacingRight=4;overflow=hidden;rotatable=0;points=[[0,0.5],[1,0.5]];portConstraint=eastwest;" parent="uqSBEjEfvSzctJDrNyYK-15" vertex="1">
          <mxGeometry y="26" width="183" height="26" as="geometry" />
        </mxCell>
        <mxCell id="uqSBEjEfvSzctJDrNyYK-17" value="CacheNamespaceHandler" style="swimlane;fontStyle=0;childLayout=stackLayout;horizontal=1;startSize=26;fillColor=#CCFFFF;horizontalStack=0;resizeParent=1;resizeParentMax=0;resizeLast=0;collapsible=1;marginBottom=0;direction=east;strokeColor=default;swimlaneLine=1;glass=0;rounded=0;shadow=0;" parent="1" vertex="1" collapsed="1">
          <mxGeometry x="1249" y="354" width="170" height="30" as="geometry">
            <mxRectangle x="604" y="162" width="183" height="52" as="alternateBounds" />
          </mxGeometry>
        </mxCell>
        <mxCell id="uqSBEjEfvSzctJDrNyYK-18" value="" style="text;strokeColor=none;fillColor=#CCFFFF;align=left;verticalAlign=top;spacingLeft=4;spacingRight=4;overflow=hidden;rotatable=0;points=[[0,0.5],[1,0.5]];portConstraint=eastwest;" parent="uqSBEjEfvSzctJDrNyYK-17" vertex="1">
          <mxGeometry y="26" width="183" height="26" as="geometry" />
        </mxCell>
        <mxCell id="uqSBEjEfvSzctJDrNyYK-19" value="LangNamespaceHandler" style="swimlane;fontStyle=0;childLayout=stackLayout;horizontal=1;startSize=26;fillColor=#CCFFFF;horizontalStack=0;resizeParent=1;resizeParentMax=0;resizeLast=0;collapsible=1;marginBottom=0;direction=east;strokeColor=default;swimlaneLine=1;glass=0;rounded=0;shadow=0;" parent="1" vertex="1" collapsed="1">
          <mxGeometry x="646" y="354" width="170" height="30" as="geometry">
            <mxRectangle x="604" y="162" width="183" height="52" as="alternateBounds" />
          </mxGeometry>
        </mxCell>
        <mxCell id="uqSBEjEfvSzctJDrNyYK-20" value="" style="text;strokeColor=none;fillColor=#CCFFFF;align=left;verticalAlign=top;spacingLeft=4;spacingRight=4;overflow=hidden;rotatable=0;points=[[0,0.5],[1,0.5]];portConstraint=eastwest;" parent="uqSBEjEfvSzctJDrNyYK-19" vertex="1">
          <mxGeometry y="26" width="183" height="26" as="geometry" />
        </mxCell>
        <mxCell id="Ya-gDQdqttQBk0-mQy4s-1" value="" style="endArrow=classic;html=1;rounded=0;dashed=1;exitX=0.5;exitY=0;exitDx=0;exitDy=0;entryX=0.5;entryY=1;entryDx=0;entryDy=0;" edge="1" parent="1" source="uqSBEjEfvSzctJDrNyYK-1" target="eDFqkNTLr4-eCkODvhOK-2">
          <mxGeometry width="50" height="50" relative="1" as="geometry">
            <mxPoint x="511" y="124" as="sourcePoint" />
            <mxPoint x="599" y="67" as="targetPoint" />
          </mxGeometry>
        </mxCell>
        <mxCell id="Ya-gDQdqttQBk0-mQy4s-2" value="" style="endArrow=classic;html=1;rounded=0;dashed=1;exitX=0.5;exitY=0;exitDx=0;exitDy=0;entryX=0.25;entryY=1;entryDx=0;entryDy=0;" edge="1" parent="1" source="eDFqkNTLr4-eCkODvhOK-7" target="eDFqkNTLr4-eCkODvhOK-2">
          <mxGeometry width="50" height="50" relative="1" as="geometry">
            <mxPoint x="521" y="134" as="sourcePoint" />
            <mxPoint x="609" y="77" as="targetPoint" />
          </mxGeometry>
        </mxCell>
        <mxCell id="Ya-gDQdqttQBk0-mQy4s-3" value="" style="endArrow=classic;html=1;rounded=0;exitX=0.5;exitY=0;exitDx=0;exitDy=0;entryX=0.75;entryY=1;entryDx=0;entryDy=0;" edge="1" parent="1" source="uqSBEjEfvSzctJDrNyYK-15" target="uqSBEjEfvSzctJDrNyYK-1">
          <mxGeometry width="50" height="50" relative="1" as="geometry">
            <mxPoint x="99" y="513" as="sourcePoint" />
            <mxPoint x="156" y="445" as="targetPoint" />
          </mxGeometry>
        </mxCell>
        <mxCell id="Ya-gDQdqttQBk0-mQy4s-4" value="" style="endArrow=classic;html=1;rounded=0;exitX=0.5;exitY=0;exitDx=0;exitDy=0;entryX=0.75;entryY=1;entryDx=0;entryDy=0;" edge="1" parent="1" source="uqSBEjEfvSzctJDrNyYK-13" target="uqSBEjEfvSzctJDrNyYK-1">
          <mxGeometry width="50" height="50" relative="1" as="geometry">
            <mxPoint x="109" y="523" as="sourcePoint" />
            <mxPoint x="166" y="455" as="targetPoint" />
          </mxGeometry>
        </mxCell>
        <mxCell id="Ya-gDQdqttQBk0-mQy4s-5" value="" style="endArrow=classic;html=1;rounded=0;exitX=0.5;exitY=0;exitDx=0;exitDy=0;entryX=0.5;entryY=1;entryDx=0;entryDy=0;" edge="1" parent="1" source="uqSBEjEfvSzctJDrNyYK-19" target="uqSBEjEfvSzctJDrNyYK-1">
          <mxGeometry width="50" height="50" relative="1" as="geometry">
            <mxPoint x="119" y="533" as="sourcePoint" />
            <mxPoint x="176" y="465" as="targetPoint" />
          </mxGeometry>
        </mxCell>
        <mxCell id="Ya-gDQdqttQBk0-mQy4s-6" value="" style="endArrow=classic;html=1;rounded=0;exitX=0.5;exitY=0;exitDx=0;exitDy=0;entryX=0.25;entryY=1;entryDx=0;entryDy=0;" edge="1" parent="1" source="uqSBEjEfvSzctJDrNyYK-11" target="uqSBEjEfvSzctJDrNyYK-1">
          <mxGeometry width="50" height="50" relative="1" as="geometry">
            <mxPoint x="129" y="543" as="sourcePoint" />
            <mxPoint x="186" y="475" as="targetPoint" />
          </mxGeometry>
        </mxCell>
        <mxCell id="Ya-gDQdqttQBk0-mQy4s-7" value="" style="endArrow=classic;html=1;rounded=0;exitX=0.5;exitY=0;exitDx=0;exitDy=0;entryX=0.25;entryY=1;entryDx=0;entryDy=0;" edge="1" parent="1" source="uqSBEjEfvSzctJDrNyYK-9" target="uqSBEjEfvSzctJDrNyYK-1">
          <mxGeometry width="50" height="50" relative="1" as="geometry">
            <mxPoint x="139" y="553" as="sourcePoint" />
            <mxPoint x="196" y="485" as="targetPoint" />
          </mxGeometry>
        </mxCell>
        <mxCell id="Ya-gDQdqttQBk0-mQy4s-8" value="" style="endArrow=classic;html=1;rounded=0;exitX=0.5;exitY=0;exitDx=0;exitDy=0;entryX=0;entryY=1;entryDx=0;entryDy=0;" edge="1" parent="1" source="uqSBEjEfvSzctJDrNyYK-7" target="uqSBEjEfvSzctJDrNyYK-1">
          <mxGeometry width="50" height="50" relative="1" as="geometry">
            <mxPoint x="149" y="563" as="sourcePoint" />
            <mxPoint x="206" y="495" as="targetPoint" />
          </mxGeometry>
        </mxCell>
      </root>
    </mxGraphModel>
  </diagram>
</mxfile>
